<?xml version="1.0" encoding="UTF-8"?>
<svg width="32px" height="32px" viewBox="0 0 32 32" version="1.1" xmlns="http://www.w3.org/2000/svg" xmlns:xlink="http://www.w3.org/1999/xlink">
    <!-- Generator: Sketch 51.2 (57519) - http://www.bohemiancoding.com/sketch -->
    <title>gas-icon-inactive-03</title>
    <desc>Created with Sketch.</desc>
    <defs></defs>
    <g id="Page-1" stroke="none" stroke-width="1" fill="none" fill-rule="evenodd">
        <g id="gas-icon-inactive-03" transform="translate(1.000000, 1.000000)" stroke="#333333">
            <circle id="Oval-3-Copy" stroke-width="0.707332856" cx="15" cy="15" r="15"></circle>
            <path d="M19.9878034,15.7131575 C19.9876465,15.5381699 19.9752689,15.3704498 19.9475507,15.1841394 C19.8280167,13.9354233 19.4810218,12.7688848 19.1143517,11.8953843 C18.9500619,12.3370033 18.6782938,12.7372434 18.2931552,12.9470373 C17.909468,13.1550754 17.4722109,13.1469328 16.9939686,12.9553923 C15.6530404,12.4169263 14.5724933,9.0691098 14.682416,7.03360393 C14.2701999,7.5484477 13.7551429,8.15940602 12.8755153,9.18963933 C12.6642579,9.43714055 12.5692356,9.54853403 12.4525159,9.68562695 C12.3071476,9.85636891 12.1785163,10.0079094 12.0561576,10.1526679 C11.3457181,10.9931658 10.8167379,11.6416178 10.3613576,12.2394696 C9.55643679,13.29703 9.2804878,14.61387 9.28027854,15.5788884 C9.28162602,15.6254483 9.28162602,15.6524495 9.28082008,15.6966468 C9.28057398,15.7086408 9.28057398,15.7086408 9.28049756,15.7145066 C9.28048905,15.7156783 9.28048905,15.7156783 9.2804878,15.7165298 C9.2804878,18.4677102 11.6756233,20.7195122 14.633902,20.7195122 C17.4736603,20.7195122 19.8002931,18.6582642 19.9707598,16.0220829 L19.9874655,15.9484093 L19.9842446,15.769383 C19.9874268,15.7116446 19.9878339,15.7042585 19.9878271,15.7121709 Z" id="icon/gas-copy" fill-rule="nonzero"></path>
        </g>
    </g>
</svg>