<?xml version="1.0" encoding="UTF-8"?>
<svg width="41px" height="41px" viewBox="0 0 41 41" version="1.1" xmlns="http://www.w3.org/2000/svg" xmlns:xlink="http://www.w3.org/1999/xlink">
    <!-- Generator: Sketch 51.2 (57519) - http://www.bohemiancoding.com/sketch -->
    <title>Group 14</title>
    <desc>Created with Sketch.</desc>
    <defs></defs>
    <g id="Round-7" stroke="none" stroke-width="1" fill="none" fill-rule="evenodd">
        <g id="bill-periods-v2" transform="translate(-232.000000, -199.000000)">
            <g id="Group-3" transform="translate(58.000000, 199.000000)">
                <g id="Group-14" transform="translate(174.000000, 0.000000)">
                    <circle id="Oval-3-Copy" fill="#D8D8D8" cx="20.5" cy="20.5" r="20.5"></circle>
                    <path d="M27.6345568,21.59672 L27.9959915,21.565941 C27.9966596,21.5577752 28,21.4874233 28,21.4792574 C28,21.2047594 27.9806255,20.9396836 27.9418765,20.6865424 C27.6586079,17.7273661 26.4079502,15.234271 26.3545033,15.1293713 C26.2856904,14.9943208 26.1333667,14.9139186 25.9723579,14.942185 C25.8146895,14.9666826 25.6924297,15.0860295 25.6743914,15.2355273 C25.6242849,15.6281159 25.3483653,16.7267361 24.6749342,17.0935709 C24.34824,17.2707069 23.9580776,17.2631692 23.4797278,17.0715859 C21.6010689,16.3171876 20.2842707,10.5583829 20.9102677,8.67270104 C20.9884338,8.43526342 21.0779573,8.16579056 20.7826632,8.03513705 C20.5875819,7.9503379 20.4152157,8.0194335 20.2635601,8.23802687 L20.1920748,8.33852957 C19.3395966,9.46478794 18.2405946,10.7524788 17.0767882,12.1155466 C15.8795774,13.5181874 14.6416134,14.9679388 13.616769,16.3134187 C12.0113575,18.4227191 12,21.1947092 12,21.3109154 C12.0026723,21.4032523 12,21.4390563 12,21.4792574 C12,25.62625 15.5882918,29 19.999666,29 C24.2366696,29 27.7187356,25.9082857 27.9752808,21.9409417 C27.9906468,21.902625 28,21.8605395 28,21.8171978 L27.9939872,21.5910667 L27.6345568,21.59672 Z" id="icon/gas-copy" fill="#9B9B9B"></path>
                </g>
            </g>
        </g>
    </g>
</svg>