<?xml version="1.0" encoding="UTF-8"?>
<svg width="32px" height="32px" viewBox="0 0 32 32" version="1.1" xmlns="http://www.w3.org/2000/svg" xmlns:xlink="http://www.w3.org/1999/xlink">
    <!-- Generator: Sketch 51.2 (57519) - http://www.bohemiancoding.com/sketch -->
    <title>Group 14</title>
    <desc>Created with Sketch.</desc>
    <defs></defs>
    <g id="Round-7" stroke="none" stroke-width="1" fill="none" fill-rule="evenodd">
        <g id="bill-periods-v2" transform="translate(-303.000000, -132.000000)">
            <g id="Group-14" transform="translate(304.000000, 133.000000)">
                <circle id="Oval-3-Copy" stroke="#999999" cx="15" cy="15" r="15"></circle>
                <path d="M20.2204074,15.802478 L20.4848718,15.7799568 C20.4853607,15.7739818 20.4878049,15.7225048 20.4878049,15.7165298 C20.4878049,15.5156776 20.4736284,15.3217197 20.4452755,15.1364944 C20.2380058,12.9712435 19.3228904,11.1470276 19.2837829,11.0702717 C19.233432,10.9714542 19.1219757,10.9126234 19.0041643,10.9333061 C18.8887972,10.9512311 18.7993388,11.0385582 18.7861401,11.1479468 C18.7494768,11.4352068 18.5475843,12.2390752 18.0548299,12.5074909 C17.8157854,12.6371026 17.5303007,12.6315872 17.1802886,12.4914044 C15.8056602,11.9394055 14.8421493,7.72564604 15.3001958,6.34587881 C15.3573906,6.17214396 15.4228956,5.9749687 15.2068267,5.87936857 C15.0640843,5.81732041 14.9379627,5.86787817 14.8269952,6.02782454 L14.7746889,6.1013631 C14.1509244,6.92545459 13.3467765,7.86766739 12.4952109,8.86503411 C11.619203,9.89135664 10.7133757,10.9521504 9.96348949,11.9366478 C8.78879815,13.4800384 8.7804878,15.5083238 8.7804878,15.5933527 C8.78244318,15.6609163 8.7804878,15.6871144 8.7804878,15.7165298 C8.7804878,18.7509147 11.4060672,21.2195122 14.6339019,21.2195122 C17.7341485,21.2195122 20.2820017,18.9572822 20.4697177,16.0543476 C20.4809611,16.026311 20.4878049,15.9955167 20.4878049,15.9638032 L20.4834053,15.7983415 L20.2204074,15.802478 Z" id="icon/gas-copy" fill="#999999"></path>
            </g>
        </g>
    </g>
</svg>