<?xml version="1.0" encoding="UTF-8"?>
<svg width="13px" height="22px" viewBox="0 0 13 22" version="1.1" xmlns="http://www.w3.org/2000/svg" xmlns:xlink="http://www.w3.org/1999/xlink">
    <!-- Generator: Sketch 50 (54983) - http://www.bohemiancoding.com/sketch -->
    <title>icon-next</title>
    <desc>Created with Sketch.</desc>
    <defs></defs>
    <g id="Page-1" stroke="none" stroke-width="1" fill="none" fill-rule="evenodd">
        <g id="icon-next" fill="#fff" fill-rule="nonzero">
            <path d="M0.505358487,11.4866904 C0.462406423,11.4553963 0.42130933,11.4204332 0.382502168,11.3818011 C0.215126581,11.2151807 0.116310411,11.0061551 0.086053657,10.7894639 C0.0308654954,10.460408 0.135124167,10.1108049 0.395912298,9.86321247 C0.44426186,9.81730935 0.495874857,9.77692232 0.549966744,9.74203287 L10.0296888,0.305080559 C10.4383065,-0.10169352 11.1008066,-0.10169352 11.5094242,0.305080559 C11.9180419,0.711854639 11.9180419,1.37136573 11.5094242,1.77813981 L2.59643807,10.6509132 L11.7825669,20.2395135 C12.1813897,20.6558099 12.165695,21.3151359 11.7475119,21.7121593 C11.3293288,22.1091827 10.6670146,22.0935589 10.2681918,21.6772625 L0.505358487,11.4866904 Z" transform="translate(6.071712, 11.000000) scale(-1, 1) translate(-6.071712, -11.000000) "></path>
        </g>
    </g>
</svg>